<svg width="101" height="101" viewBox="0 0 101 101" fill="none" xmlns="http://www.w3.org/2000/svg">
<path d="M89.1248 55.6654C88.1018 54.5024 86.6908 53.8084 85.1528 53.7114C83.6318 53.6194 82.1588 54.1204 81.0088 55.1354L68.2618 66.5124C68.2248 66.2964 68.1798 66.0904 68.1278 65.9014C67.5628 63.8584 66.0758 62.4424 64.8508 61.9444C62.3228 60.9234 58.8258 61.4014 55.4478 61.8634C53.2118 62.1694 50.8968 62.4834 49.4498 62.2274C48.6488 62.0844 47.8288 61.7224 46.8808 61.3044C44.3108 60.1694 40.7908 58.6174 34.2398 60.0384C30.7498 60.7994 28.0508 62.7494 26.2208 64.5064V61.5044C26.2208 60.6764 25.5498 60.0044 24.7208 60.0044H10.9258C10.0968 60.0044 9.42578 60.6764 9.42578 61.5044V95.3174C9.42578 96.1454 10.0968 96.8174 10.9258 96.8174H24.7208C25.5498 96.8174 26.2208 96.1454 26.2208 95.3174V88.4074C29.5388 89.1454 36.6168 90.5604 42.0708 90.5604C48.8918 90.5604 57.2498 89.0124 62.3948 86.7964C71.8628 82.7234 87.4538 65.1494 88.7168 63.7124C89.8228 62.7024 90.4788 61.3254 90.5658 59.8244C90.6538 58.2974 90.1418 56.8194 89.1248 55.6654ZM23.2208 93.8194H12.4258V63.0054H23.2208V93.8194ZM86.6568 61.5334C86.6078 61.5754 86.5618 61.6214 86.5198 61.6694C86.3578 61.8544 70.2498 80.1524 61.2078 84.0434C56.3968 86.1154 48.5278 87.5634 42.0708 87.5634C36.5848 87.5634 29.0508 85.9764 26.2208 85.3324V69.0584C27.0468 67.9044 30.1398 64.0034 34.8768 62.9714C40.4728 61.7564 43.2328 62.9754 45.6688 64.0504C46.7478 64.5264 47.7668 64.9754 48.9208 65.1814C50.8338 65.5224 53.2708 65.1894 55.8528 64.8364C58.7068 64.4454 61.9408 64.0054 63.7238 64.7254C64.1748 64.9094 64.9428 65.6434 65.2358 66.7024C65.5258 67.7494 65.2678 68.8204 64.4808 69.8874L63.2228 71.0104C63.2108 71.0214 63.2058 71.0374 63.1948 71.0484C59.0838 73.8854 47.9658 77.2764 43.0708 76.8894C42.2418 76.8244 41.5238 77.4454 41.4608 78.2714C41.3978 79.0974 42.0158 79.8184 42.8418 79.8814C43.1498 79.9044 43.4778 79.9154 43.8238 79.9154C50.3928 79.9154 63.3968 75.7814 66.6568 71.9684L83.0028 57.3794C83.5448 56.9004 84.2348 56.6594 84.9658 56.7064C85.7028 56.7524 86.3798 57.0864 86.8738 57.6484C87.3658 58.2074 87.6138 58.9194 87.5708 59.6534C87.5278 60.3834 87.2038 61.0504 86.6568 61.5334Z" fill="black"/>
<path d="M29.4689 21.9132H32.7909V52.1902C32.7909 53.0182 33.4619 53.6902 34.2909 53.6902H66.0669C66.8949 53.6902 67.5669 53.0182 67.5669 52.1902V21.9132H70.8939C71.5399 21.9132 72.1129 21.5002 72.3169 20.8882C72.5209 20.2752 72.3109 19.6012 71.7949 19.2132L50.8179 3.47921C50.2789 3.07621 49.5369 3.08121 49.0039 3.49021L28.5539 19.2242C28.0449 19.6162 27.8419 20.2882 28.0489 20.8962C28.2549 21.5052 28.8269 21.9132 29.4689 21.9132ZM49.9299 6.56321L66.3949 18.9132H66.0679C65.2399 18.9132 64.5679 19.5842 64.5679 20.4132V50.6902H35.7909V20.4132C35.7909 19.5842 35.1199 18.9132 34.2909 18.9132H33.8779L49.9299 6.56321Z" fill="black"/>
<path d="M44.4316 43.5481H55.9266C56.7546 43.5481 57.4266 42.8771 57.4266 42.0481V24.8521C57.4266 24.0231 56.7546 23.3521 55.9266 23.3521H44.4316C43.6026 23.3521 42.9316 24.0231 42.9316 24.8521V42.0481C42.9316 42.8771 43.6036 43.5481 44.4316 43.5481ZM45.9316 26.3521H54.4266V40.5481H45.9316V26.3521Z" fill="black"/>
</svg>
