<?xml version="1.0" encoding="utf-8"?><svg viewBox="0 0 495.398 495.398" xmlns="http://www.w3.org/2000/svg" xmlns:xlink="http://www.w3.org/1999/xlink"><style>:root>svg{display:none}:root>svg:target{display:block}</style><svg viewBox="0 0 495.398 495.398" id="Logo" xmlns="http://www.w3.org/2000/svg"><path d="M487.083 225.514l-75.08-75.08v-86.73c0-15.682-12.708-28.391-28.413-28.391-15.669 0-28.377 12.709-28.377 28.391v29.941L299.31 37.74c-27.639-27.624-75.694-27.575-103.27.05L8.312 225.514c-11.082 11.104-11.082 29.071 0 40.158 11.087 11.101 29.089 11.101 40.172 0l187.71-187.729c6.115-6.083 16.893-6.083 22.976-.018l187.742 187.747a28.337 28.337 0 0020.081 8.312c7.271 0 14.541-2.764 20.091-8.312 11.086-11.086 11.086-29.053-.001-40.158z"/><path d="M257.561 131.836c-5.454-5.451-14.285-5.451-19.723 0L72.712 296.913a13.977 13.977 0 00-4.085 9.877v120.401c0 28.253 22.908 51.16 51.16 51.16h81.754v-126.61h92.299v126.61h81.755c28.251 0 51.159-22.907 51.159-51.159V306.79c0-3.713-1.465-7.271-4.085-9.877L257.561 131.836z"/></svg><svg viewBox="0 0 36 36" id="Vector" xmlns="http://www.w3.org/2000/svg"><path d="M17.995 8.764A9.223 9.223 0 008.76 18a9.223 9.223 0 009.235 9.236A9.223 9.223 0 0027.231 18a9.223 9.223 0 00-9.236-9.236zm0 15.239c-3.305 0-6.002-2.698-6.002-6.003s2.697-6.003 6.002-6.003c3.305 0 6.003 2.698 6.003 6.003s-2.698 6.003-6.003 6.003zm9.614-17.77a2.154 2.154 0 00-2.157 2.158c0 1.193.964 2.156 2.157 2.156s2.157-.959 2.157-2.156a2.153 2.153 0 00-2.157-2.157zM35.998 18c0-2.486.023-4.949-.117-7.43-.14-2.882-.797-5.44-2.904-7.547C30.864.91 28.31.258 25.43.118 22.944-.022 20.48.001 18 .001c-2.486 0-4.95-.022-7.43.117-2.882.14-5.44.797-7.547 2.905C.91 5.135.258 7.688.118 10.57-.022 13.056.001 15.519.001 18s-.022 4.949.117 7.43c.14 2.882.797 5.44 2.905 7.547 2.112 2.112 4.665 2.765 7.547 2.905 2.485.14 4.948.117 7.43.117 2.485 0 4.948.022 7.43-.117 2.881-.14 5.44-.797 7.547-2.905 2.111-2.112 2.764-4.665 2.904-7.547.144-2.481.117-4.944.117-7.43zm-3.963 10.618a5.723 5.723 0 01-1.36 2.063 5.76 5.76 0 01-2.062 1.36c-2.368.94-7.993.729-10.618.729s-8.254.212-10.622-.725a5.722 5.722 0 01-2.063-1.36 5.762 5.762 0 01-1.36-2.062C3.014 26.25 3.225 20.625 3.225 18c0-2.625-.211-8.254.725-10.623a5.722 5.722 0 011.36-2.062 5.82 5.82 0 012.063-1.36c2.368-.937 7.997-.725 10.622-.725s8.254-.212 10.623.725c.82.329 1.432.725 2.062 1.36a5.76 5.76 0 011.36 2.062c.937 2.369.725 7.998.725 10.623 0 2.625.212 8.25-.73 10.618z" fill="#fff"/></svg><svg viewBox="0 0 36 36" id="rar" xmlns="http://www.w3.org/2000/svg"><path d="M34.56 0H1.44C.644 0 0 .643 0 1.44v33.12C0 35.356.643 36 1.44 36h33.12c.796 0 1.44-.644 1.44-1.44V1.44C36 .644 35.356 0 34.56 0zm-1.44 33.12h-8.284V22.059h4.68l.702-5.431h-5.383v-3.47c0-1.575.437-2.646 2.691-2.646h2.876v-4.86c-.5-.067-2.205-.216-4.194-.216-4.149 0-6.988 2.534-6.988 7.182v4.005h-4.69v5.431h4.694V33.12H2.88V2.88h30.24v30.24z" fill="#fff"/></svg><svg viewBox="0 0 122.88 122.88" id="tel" xmlns="http://www.w3.org/2000/svg"><path d="M61.44 0c16.97 0 32.33 6.88 43.44 18 11.12 11.12 18 26.48 18 43.44 0 16.96-6.88 32.33-18 43.44-11.12 11.12-26.48 18-43.44 18-16.97 0-32.33-6.88-43.44-18C6.88 93.77 0 78.41 0 61.44S6.88 29.11 18 18C29.11 6.88 44.47 0 61.44 0zM48.1 56.19c2 3.6 4.3 7.06 7.29 10.21 2.99 3.17 6.72 6.06 11.55 8.52.35.18.7.18 1 .05.46-.18.92-.55 1.39-1.01.35-.35.8-.93 1.27-1.55 1.85-2.44 4.15-5.47 7.39-3.96.07.03.13.07.2.11L89 74.78c.03.02.07.05.11.07 1.43.98 2.02 2.49 2.03 4.2 0 1.75-.64 3.71-1.58 5.36-1.25 2.19-3.08 3.63-5.2 4.6-2.01.92-4.26 1.42-6.41 1.74-3.38.5-6.55.18-9.8-.82-3.17-.98-6.37-2.61-9.85-4.76l-.25-.16c-1.6-1-3.33-2.07-5.03-3.33-6.21-4.68-12.54-11.45-16.65-18.9-3.46-6.26-5.34-13.01-4.32-19.44.57-3.53 2.09-6.74 4.72-8.85 2.3-1.85 5.4-2.87 9.41-2.51.46.03.87.3 1.09.7l6.94 11.72c1.01 1.32 1.14 2.62.59 3.92-.46 1.07-1.39 2.05-2.66 2.98-.37.32-.82.64-1.29.98-1.55 1.12-3.32 2.42-2.71 3.96l-.04-.05zm50.2-31.61C88.87 15.15 75.83 9.31 61.44 9.31s-27.43 5.83-36.86 15.27C15.15 34.01 9.31 47.05 9.31 61.44s5.83 27.43 15.27 36.86 22.46 15.27 36.86 15.27c14.39 0 27.43-5.83 36.86-15.27 9.43-9.43 15.27-22.46 15.27-36.86 0-14.39-5.84-27.43-15.27-36.86z"/></svg></svg>