<svg width="532" height="661" viewBox="0 0 532 661" fill="none" xmlns="http://www.w3.org/2000/svg">
<path d="M561.001 445.903L561.006 445.896L561.011 445.89C562.323 444.212 563.652 442.411 565.018 440.56C567.341 437.411 569.771 434.118 572.404 431.043C576.564 426.186 580.91 422.287 585.477 420.853C589.645 419.577 593.465 420.53 597.447 422.694C600.707 424.514 603.701 427.364 606.776 430.765C608.176 432.314 609.572 433.953 611.012 435.642C611.148 435.803 611.286 435.964 611.424 436.126C613 437.975 614.627 439.874 616.334 441.727C619.327 445.111 622.469 448.051 626.072 449.829C630.095 452.07 634.319 452.843 638.598 453.179C640.545 453.332 642.533 453.396 644.521 453.46C644.718 453.467 644.914 453.473 645.111 453.479C647.308 453.551 649.515 453.634 651.758 453.843L651.766 453.843L651.773 453.844C663.975 454.86 672.689 465.803 673.436 480.931C673.687 486.025 673.393 490.782 672.564 495.207C671.165 501.788 668.825 508.813 665.407 514.529C661.976 520.265 657.574 524.5 652.117 525.869C651.093 526.124 649.852 526.011 648.361 525.578C646.874 525.146 645.285 524.44 643.604 523.652C643.322 523.52 643.037 523.385 642.75 523.25C641.363 522.594 639.923 521.914 638.541 521.386C636.879 520.751 635.124 520.264 633.441 520.337L633.43 520.337L633.418 520.338C629.993 520.541 626.72 520.819 623.581 521.086C617.811 521.577 612.491 522.029 607.506 521.907L607.491 521.907L607.475 521.907C600.615 521.881 593.926 522.992 587.457 524.065C586.715 524.188 585.976 524.311 585.24 524.431C578.032 525.611 571.087 526.58 564.145 525.874C561.098 525.559 558.044 523.824 554.653 521.785C554.47 521.675 554.286 521.564 554.101 521.452C551.024 519.596 547.66 517.567 544.159 516.886C542.833 516.479 541.74 516.419 540.362 516.675L540.337 516.679L540.313 516.685C530.72 518.799 521.39 515.026 514.075 507.347L514.06 507.331L514.044 507.315C512.031 505.324 510.316 502.823 509.188 499.25L509.092 498.946L508.979 498.819L508.961 498.746C507.668 493.565 508.481 487.674 510.459 482.561C512.451 477.41 515.509 473.342 518.399 471.621L518.423 471.607L518.446 471.592C521.008 469.936 523.727 469.361 526.663 469.015C527.369 468.932 528.101 468.861 528.851 468.789C531.12 468.572 533.545 468.339 535.862 467.686C537.66 467.206 539.243 466.689 540.862 465.849C544.958 463.807 548.528 460.628 551.784 457.093C554.345 454.313 556.772 451.243 559.12 448.273C559.752 447.473 560.379 446.68 561.001 445.903Z" stroke="#FF3A7B" stroke-width="3" stroke-miterlimit="10"/>
<path d="M586.609 395.318L586.62 395.315L586.63 395.313C593.3 393.88 599.006 396.547 604.393 400.538C608.642 403.716 612.452 408.01 616.283 412.8C617.641 414.499 619.01 416.272 620.401 418.072C622.882 421.284 625.432 424.585 628.11 427.713C631.972 432.394 636.21 435.922 640.507 438.564L640.524 438.575L640.541 438.585C645.816 441.64 651.394 442.792 657.123 443.328C659.983 443.595 662.908 443.71 665.853 443.823L666.016 443.83C668.92 443.942 671.85 444.054 674.836 444.307C695.004 446.096 706.535 463.479 707.464 485.294C707.561 493.059 707.366 500.673 705.819 507.592L705.817 507.601L705.815 507.611C703.788 517.245 700.727 528.728 695.993 538.352C691.237 548.022 684.962 555.472 676.682 557.642C675.292 557.973 673.472 557.587 671.183 556.522C668.923 555.472 666.475 553.893 663.919 552.198C663.65 552.019 663.379 551.839 663.108 551.658C660.845 550.153 658.516 548.604 656.301 547.418C653.855 546.108 651.293 545.093 648.911 545.211L648.902 545.211L648.894 545.211C644.247 545.493 639.713 545.94 635.318 546.374C632.992 546.604 630.704 546.829 628.46 547.024C621.93 547.592 615.672 547.913 609.494 547.393C599.109 546.458 588.98 549.641 579.203 552.844C578.844 552.962 578.485 553.08 578.126 553.197C568.62 556.316 559.444 559.327 550.187 559.027L550.179 559.027C548.501 558.982 546.697 558.233 544.72 556.899C542.752 555.57 540.75 553.756 538.682 551.762C538.071 551.172 537.451 550.565 536.827 549.952C535.375 548.528 533.897 547.078 532.439 545.775C530.353 543.913 528.172 542.225 525.93 541.21C524.388 540.483 522.67 539.995 520.826 540.247L520.769 540.255L520.714 540.267C506.798 543.257 493.879 537.021 484.122 526.291C481.271 523.065 478.765 519.351 477.184 513.757L476.895 512.733L476.832 512.729C475.129 505.164 476.282 496.537 479.014 489.032C481.821 481.32 486.175 475.112 490.411 472.481L490.428 472.47L490.445 472.459C494.362 469.88 498.395 469.028 502.68 468.476C503.563 468.363 504.464 468.262 505.38 468.159C508.84 467.771 512.508 467.36 516.14 466.16L516.158 466.154L516.175 466.148C518.29 465.391 520.766 464.342 522.989 462.953C533.264 456.634 541.398 445.402 548.599 435.458C549.384 434.374 550.158 433.305 550.922 432.26L550.929 432.251C552.518 430.042 554.163 427.61 555.881 425.07C559.211 420.147 562.811 414.822 566.801 409.957C572.843 402.588 579.423 396.751 586.609 395.318ZM476.981 513.776C476.981 513.776 476.981 513.776 476.981 513.775C476.981 513.776 476.981 513.776 476.981 513.776L476.981 513.776Z" stroke="#FF3A7B" stroke-width="3" stroke-miterlimit="10"/>
<path d="M540.848 418.082L540.848 418.081C542.901 415.215 545.051 411.995 547.315 408.604C551.608 402.173 556.312 395.126 561.551 388.698C569.547 378.89 578.391 371.063 588.137 369.485C596.773 368.146 604.675 372.609 611.425 378.424C616.632 382.964 621.237 388.69 625.825 394.797C626.927 396.265 628.03 397.757 629.14 399.257C632.612 403.954 636.149 408.739 639.948 413.155C644.855 419.326 649.901 423.78 655.343 427.085L655.346 427.087C666.336 433.72 678.639 434.122 691.911 434.556C693.908 434.621 695.927 434.687 697.967 434.776L697.969 434.776C711.993 435.358 722.477 441.895 729.634 451.807C736.823 461.762 740.678 475.167 741.224 489.401L741.224 489.409L741.225 489.418C741.733 499.719 741.103 509.925 739.099 519.453C736.458 531.965 732.688 547.881 726.658 561.4C720.593 574.998 712.443 585.716 701.295 588.554L701.292 588.555C699.382 589.045 696.887 588.391 693.792 586.723C690.749 585.084 687.452 582.65 684.049 580.072C683.696 579.805 683.342 579.537 682.987 579.267C679.962 576.97 676.877 574.628 673.96 572.835C670.753 570.862 667.443 569.351 664.419 569.51L664.409 569.511C657.953 569.894 651.707 570.59 645.649 571.266C642.718 571.593 639.831 571.915 636.985 572.194C628.212 573.055 619.732 573.523 611.158 572.572C597.983 571.02 585.093 575.971 572.641 581.13C571.78 581.487 570.92 581.845 570.063 582.202C558.38 587.067 547.074 591.776 535.726 591.864C533.721 591.853 531.562 590.804 529.19 588.843C526.832 586.893 524.45 584.2 522.01 581.23C521.152 580.186 520.281 579.101 519.406 578.008C517.832 576.046 516.24 574.061 514.67 572.252C512.22 569.427 509.673 566.848 507.046 565.206L506.987 565.169L506.925 565.138L506.873 565.112C505.931 564.638 504.867 564.102 503.805 563.756C502.725 563.404 501.49 563.192 500.23 563.517C482.265 567.386 466.036 558.964 453.588 544.887C449.945 540.767 446.42 535.607 444.661 528.103C444.644 527.916 444.605 527.76 444.57 527.647C444.525 527.5 444.468 527.365 444.439 527.297L444.401 527.119C442.245 516.805 443.861 505.018 447.498 494.796C451.151 484.529 456.732 476.149 462.214 472.444L462.225 472.436C467.494 468.804 472.897 467.678 478.56 466.959C479.637 466.822 480.732 466.7 481.839 466.577C486.479 466.059 491.345 465.515 496.154 463.762L496.191 463.748L496.227 463.733L496.289 463.706C499.2 462.468 502.265 461.164 505.088 459.238C512.634 454.512 519.07 447.692 524.85 440.359C528.783 435.371 532.468 430.07 535.997 424.993C537.645 422.622 539.259 420.3 540.848 418.082Z" stroke="#FF3A7B" stroke-width="3" stroke-miterlimit="10"/>
<path d="M589.375 343.918L589.381 343.917C600.592 342.436 610.4 348.703 618.493 356.334C624.643 362.233 630.036 369.385 635.441 376.916C636.403 378.257 637.366 379.611 638.334 380.971C642.776 387.213 647.314 393.591 652.316 399.503C658.286 406.874 664.139 412.253 670.715 416.214L670.717 416.216C684.511 424.489 700.059 424.937 717.512 425.441C718.866 425.48 720.231 425.519 721.609 425.562L721.611 425.562C739.516 426.101 752.694 434.383 761.597 446.915C770.533 459.494 775.186 476.405 775.809 494.108C776.163 507.043 775.654 519.838 772.926 531.885L772.924 531.895L772.921 531.91C769.514 547.431 765.035 567.837 757.749 585.284C750.421 602.83 740.474 616.841 726.446 620.359C723.991 620.954 720.8 619.957 716.908 617.646C713.08 615.372 708.933 612.051 704.682 608.573C704.292 608.253 703.9 607.932 703.508 607.61C699.676 604.469 695.788 601.281 692.126 598.849C688.153 596.21 684.113 594.222 680.473 594.418C672.287 594.823 664.349 595.773 656.593 596.701C653.206 597.107 649.854 597.508 646.532 597.858C635.549 599.014 624.774 599.625 613.667 598.093C597.731 595.777 582.166 602.493 567.077 609.645C565.787 610.257 564.501 610.871 563.218 611.484C549.31 618.128 535.772 624.595 522.113 625.042L522.108 625.042C519.755 625.127 517.211 623.793 514.404 621.176C511.626 618.587 508.83 614.969 505.982 610.982C504.923 609.5 503.851 607.958 502.774 606.408C500.998 603.852 499.208 601.277 497.441 598.92C494.598 595.127 491.661 591.68 488.637 589.491L488.602 589.466L488.565 589.442C486.074 587.851 483.662 586.535 480.698 587.085L480.678 587.089L480.659 587.093C458.312 591.863 438.465 581.21 423.621 563.819L423.613 563.808L423.604 563.799C419.164 558.778 414.849 552.427 412.636 542.896C412.628 542.459 412.53 542.119 412.456 541.893C412.446 541.863 412.434 541.83 412.425 541.802L412.426 541.781L412.385 541.585C409.676 528.489 411.625 513.69 416.068 500.926C420.527 488.114 427.39 477.657 434.221 473.03L434.23 473.023C440.847 468.47 447.625 467.138 454.679 466.25C455.801 466.108 456.934 465.978 458.077 465.847C464.047 465.162 470.268 464.449 476.416 461.956C480.33 460.432 484.008 458.583 487.443 456.111C496.5 450.039 504.336 441.436 511.382 432.237C516.397 425.69 521.064 418.769 525.491 412.203C527.278 409.552 529.026 406.96 530.743 404.473C533.13 401.056 535.66 397.164 538.346 393.033C543.607 384.94 549.469 375.924 556.036 367.742C565.958 355.379 577.076 345.493 589.375 343.918Z" stroke="#FF3A7B" stroke-width="3" stroke-miterlimit="10"/>
<path d="M520.934 390.605L520.939 390.598C523.568 386.727 526.364 382.322 529.34 377.635C535.626 367.735 542.711 356.575 550.714 346.513C562.513 331.679 575.908 319.782 590.936 318.078C604.148 316.705 615.886 324.515 625.577 334.255C632.666 341.515 638.849 350.021 644.999 358.893C646.149 360.552 647.298 362.224 648.452 363.903C653.447 371.173 658.527 378.566 664.108 385.506C670.881 394.098 677.832 400.407 685.222 404.991L685.228 404.995L685.235 404.999C702.295 415.329 721.366 415.772 743.512 416.287L744.671 416.314L744.672 416.314C766.463 416.807 782.264 426.831 792.844 441.944C803.461 457.112 808.844 477.456 809.551 498.488C810.033 514.015 809.367 529.404 806.189 544.029L806.187 544.038C806.09 544.501 805.991 544.969 805.892 545.44C802.056 563.667 796.992 587.728 788.67 608.497C780.093 629.901 768.279 647.231 751.337 651.574C748.324 652.273 744.433 650.92 739.752 647.967C735.14 645.057 730.144 640.848 725.048 636.47C724.615 636.099 724.182 635.726 723.749 635.353C719.113 631.365 714.426 627.332 710.022 624.262C705.279 620.954 700.512 618.498 696.267 618.735L696.26 618.736C686.812 619.308 677.664 620.481 668.726 621.626C664.214 622.204 659.757 622.776 655.342 623.259C642.114 624.709 629.11 625.398 615.599 623.289L615.59 623.288C597.051 620.516 578.906 628.984 561.215 638.097C559.601 638.929 557.99 639.766 556.382 640.601C540.182 649.019 524.307 657.269 508.221 658.204L508.21 658.205C505.483 658.384 502.54 656.763 499.306 653.513C496.111 650.303 492.909 645.784 489.672 640.801C488.325 638.728 486.958 636.552 485.589 634.372C483.723 631.4 481.852 628.42 480.018 625.681C476.83 620.92 473.571 616.595 470.25 613.803C467.343 611.176 464.379 609.863 461.148 610.375L461.108 610.382L461.068 610.39C434.647 616.057 410.922 602.88 393.66 582.449C388.405 576.206 383.29 568.635 380.629 557.038C380.617 556.878 380.591 556.745 380.574 556.662C380.543 556.513 380.502 556.361 380.475 556.261C380.449 556.162 380.432 556.098 380.421 556.05L380.427 555.955L380.386 555.759C377.118 540.036 379.467 522.235 384.755 506.889C390.059 491.493 398.21 478.88 406.256 473.321C414.379 467.709 422.614 466.106 431.08 465.053C432.407 464.888 433.745 464.736 435.091 464.584C442.258 463.771 449.655 462.933 456.953 459.891C461.502 458.097 465.774 455.705 469.748 453.019L469.752 453.016C480.634 445.607 489.888 435.133 498.174 423.986C503.556 416.746 508.587 409.138 513.392 401.872C515.965 397.982 518.472 394.19 520.934 390.605Z" stroke="#FF3A7B" stroke-width="3" stroke-miterlimit="10"/>
<path d="M378.018 473.31L378.009 473.317C368.614 479.799 359.177 494.561 353.028 512.539C346.896 530.466 344.145 551.273 347.832 569.622L347.871 569.814L347.859 570.009L347.859 570.013C347.857 570.031 347.856 570.052 347.911 570.258L347.918 570.284C347.969 570.475 348.056 570.8 348.063 571.213C351.177 584.834 357.078 593.602 363.131 601.051C383.075 624.816 410.113 640.194 440.604 633.636C444.305 632.777 447.885 634.888 450.943 637.72C454.653 641.113 458.306 646.312 461.894 652.051C463.965 655.364 466.07 658.949 468.17 662.527C469.695 665.127 471.219 667.723 472.725 670.207C476.353 676.188 479.945 681.632 483.526 685.523C487.155 689.466 490.459 691.469 493.5 691.312C503.592 690.594 513.684 687.215 523.851 682.586C531.999 678.876 540.118 674.4 548.291 669.894C550.334 668.768 552.381 667.64 554.432 666.522C574.797 655.416 595.666 645.208 616.933 648.737L616.937 648.738C632.85 651.422 648.16 650.589 663.638 648.846C668.58 648.289 673.555 647.637 678.573 646.979C689.206 645.586 700.037 644.167 711.172 643.574M378.018 473.31L711.254 645.071M378.018 473.31C387.349 466.768 396.894 464.887 406.744 463.63C408.273 463.435 409.813 463.255 411.362 463.074C419.728 462.096 428.365 461.087 436.926 457.507C442.07 455.46 447.243 452.543 451.837 449.309C464.376 440.565 475.1 428.386 484.688 415.408C491.495 406.194 497.779 396.507 503.738 387.32C506.162 383.584 508.531 379.93 510.861 376.425C513.786 372.069 516.914 367.089 520.255 361.771C527.535 350.183 535.824 336.99 545.219 325.133C558.938 307.819 574.611 293.917 592.214 292.22C608.005 290.711 621.631 300.617 632.677 312.192C640.699 320.658 647.588 330.571 654.41 340.856C655.574 342.611 656.736 344.376 657.901 346.147C663.546 354.724 669.268 363.419 675.622 371.502M378.018 473.31L676.806 370.581M711.172 643.574C711.172 643.574 711.173 643.574 711.174 643.574L711.254 645.071M711.172 643.574C711.171 643.574 711.17 643.574 711.169 643.574L711.254 645.071M711.172 643.574C713.633 643.434 716.224 644.123 718.842 645.3C721.468 646.482 724.214 648.2 727.014 650.229C732.068 653.891 737.456 658.684 742.802 663.441C743.369 663.946 743.937 664.451 744.503 664.954C750.444 670.23 756.286 675.308 761.68 678.798C767.155 682.341 771.747 683.963 775.324 683.03L775.335 683.027L775.335 683.027C785.242 680.523 793.624 674.114 800.787 665.102C807.954 656.084 813.84 644.532 818.753 631.904C827.922 608.332 833.6 581.28 837.958 560.513C838.272 559.019 838.578 557.558 838.879 556.133M711.254 645.071C719.38 644.61 730.528 654.528 741.812 664.568C754.225 675.613 766.803 686.804 775.703 684.481C815.592 674.398 830.399 603.837 839.422 560.84C839.737 559.339 840.045 557.872 840.346 556.443M838.879 556.133L840.346 556.443M838.879 556.133C838.879 556.133 838.879 556.133 838.879 556.133L840.346 556.443M838.879 556.133C842.505 538.935 843.347 520.669 843.006 502.839M840.346 556.443C844.006 539.086 844.848 520.691 844.505 502.8M844.505 502.8L843.006 502.849C843.006 502.845 843.006 502.842 843.006 502.839M844.505 502.8C842.909 453.703 819.87 406.46 767.486 405.261M844.505 502.8L843.006 502.829C843.006 502.832 843.006 502.835 843.006 502.839M843.006 502.839C842.212 478.484 836.101 454.711 823.807 436.921C811.551 419.188 793.127 407.349 767.456 406.76M767.486 405.261L767.46 406.76C767.458 406.76 767.457 406.76 767.456 406.76M767.486 405.261C741.285 404.804 719.696 404.343 700.536 392.502M767.486 405.261L767.451 406.76C767.453 406.76 767.455 406.76 767.456 406.76M767.456 406.76C741.342 406.306 719.317 405.872 699.747 393.778M700.536 392.502L699.75 393.78C699.749 393.779 699.748 393.779 699.747 393.778M700.536 392.502C692.204 387.379 684.282 380.263 676.806 370.581M700.536 392.502L699.747 393.778M699.747 393.778C691.246 388.55 683.194 381.308 675.622 371.502M676.806 370.581L675.627 371.508C675.626 371.506 675.624 371.504 675.622 371.502M676.806 370.581L675.619 371.498C675.62 371.499 675.621 371.501 675.622 371.502" stroke="#FF3A7B" stroke-width="3" stroke-miterlimit="10"/>
<path d="M593.764 266.665L593.773 266.665L593.781 266.664C611.582 264.992 627.396 276.739 639.776 290.127C648.731 299.951 656.402 311.285 664.043 322.958C664.966 324.368 665.888 325.783 666.813 327.201C673.522 337.491 680.324 347.924 688.015 357.573C696.652 368.579 705.507 376.739 715.132 382.618C736.91 396.288 761.521 396.881 791.076 397.547L791.089 397.547C820.657 397.947 841.779 411.532 855.782 431.893C869.827 452.313 876.733 479.598 877.61 507.278L877.61 507.284C878.347 528.005 877.348 548.848 872.991 568.591L872.99 568.595C872.361 571.491 871.713 574.524 871.042 577.67C866.123 600.701 859.909 629.801 850.163 655.425C844.627 669.98 837.979 683.331 829.84 693.77C821.706 704.203 812.143 711.651 800.775 714.567L800.768 714.568C798.803 715.082 796.52 714.873 793.9 713.973C791.279 713.073 788.415 711.513 785.356 709.453C779.231 705.328 772.558 699.36 765.769 693.184C765.232 692.695 764.693 692.204 764.154 691.713C757.932 686.044 751.653 680.324 745.775 675.974C742.577 673.607 739.45 671.609 736.469 670.236C733.498 668.867 730.575 668.072 727.815 668.231C714.959 668.92 702.499 670.615 690.272 672.278C684.568 673.054 678.916 673.823 673.298 674.48C655.569 676.552 638.024 677.535 619.706 674.273L619.698 674.272C595.706 670.137 572.197 682.08 549.193 695.145C546.828 696.488 544.467 697.844 542.109 699.199C532.927 704.473 523.796 709.718 514.626 714.083C503.115 719.563 491.668 723.592 480.199 724.509C476.683 724.765 472.947 722.434 468.901 717.835C464.91 713.298 460.941 706.926 456.943 699.93C455.322 697.095 453.689 694.143 452.053 691.186C449.694 686.922 447.329 682.645 444.984 678.689C441.013 671.988 436.952 665.937 432.775 662.001C429.371 658.483 425.543 656.446 421.339 657.227L421.319 657.23L421.3 657.234C386.429 664.684 355.791 646.784 333.43 619.975C326.542 611.577 319.566 601.269 316.28 585.826L316.25 585.685L316.194 585.551C316.141 585.429 316.111 585.295 316.054 584.986C316.009 584.743 315.942 584.363 315.789 583.952C311.582 563.006 314.664 539.247 321.589 518.782C328.546 498.222 339.27 481.309 350.014 473.904L350.024 473.898L350.033 473.891C360.723 466.285 371.65 464.129 382.877 462.705C384.618 462.484 386.371 462.281 388.133 462.077C397.667 460.971 407.47 459.835 417.169 455.707C423.176 453.151 428.942 449.989 434.171 446.197C448.373 436.113 460.501 422.149 471.355 407.306C478.809 397.111 485.712 386.429 492.277 376.27C495.258 371.657 498.169 367.152 501.03 362.85C504.476 357.704 508.159 351.781 512.096 345.449C520.252 332.332 529.5 317.458 539.994 304.091C555.561 284.26 573.441 268.346 593.764 266.665Z" stroke="#FF3A7B" stroke-width="3" stroke-miterlimit="10"/>
<path d="M646.865 268.356L646.858 268.349C633.184 252.885 615.435 239.564 595.035 241.093C572.116 242.907 551.954 260.838 534.472 283.142C522.447 298.483 511.884 315.621 502.653 330.599C498.472 337.381 494.565 343.721 490.918 349.25C487.722 354.123 484.466 359.239 481.126 364.485C473.881 375.867 466.244 387.866 457.979 399.341C445.888 416.128 432.348 431.954 416.476 443.379L416.47 443.383L416.463 443.388C410.391 447.663 404.306 451.394 397.662 454.221C386.72 458.937 375.646 460.229 364.839 461.489C362.976 461.707 361.121 461.923 359.275 462.156C346.664 463.748 334.355 466.109 322.32 474.499C310.343 482.986 298.338 501.992 290.507 525.053C282.708 548.022 279.158 574.709 283.774 598.42C283.919 598.809 283.986 599.171 284.031 599.413L284.037 599.448C284.095 599.758 284.125 599.892 284.177 600.014L284.233 600.147L284.263 600.288C288 617.779 295.769 629.292 303.456 638.899C328.2 669.01 362.438 689.144 401.675 680.822C406.314 679.712 410.459 682.524 414.272 686.22L414.278 686.226L414.284 686.232C418.857 690.768 423.318 697.718 427.69 705.42C430.242 709.913 432.814 714.757 435.378 719.587C437.2 723.018 439.018 726.443 440.823 729.73C445.212 737.724 449.569 745.002 453.943 750.164C458.384 755.405 462.479 758.032 466.319 757.671L466.32 757.671C479.102 756.479 491.872 751.743 504.712 745.376C514.774 740.386 524.798 734.438 534.868 728.462C537.66 726.806 540.455 725.147 543.255 723.506C568.897 708.481 595.045 694.877 621.608 699.755L621.61 699.755C642.339 703.596 662.191 702.538 682.167 700.208C688.704 699.445 695.274 698.543 701.895 697.634C715.43 695.775 729.176 693.887 743.292 693.104M646.865 268.356L743.376 694.602M646.865 268.356C656.759 279.393 665.219 292.005 673.608 304.984C674.788 306.809 675.966 308.642 677.147 310.478C684.342 321.669 691.626 332.996 699.809 343.577L646.865 268.356ZM743.292 693.104C743.292 693.104 743.293 693.104 743.293 693.104L743.376 694.602M743.292 693.104C743.291 693.104 743.29 693.104 743.289 693.104L743.376 694.602M743.292 693.104C746.348 692.927 749.598 693.827 752.916 695.386C756.245 696.951 759.745 699.229 763.332 701.933C769.949 706.921 777.025 713.487 784.05 720.005C784.632 720.545 785.214 721.085 785.795 721.624C793.429 728.699 800.949 735.556 807.857 740.319C811.307 742.698 814.546 744.513 817.517 745.574C820.489 746.635 823.094 746.907 825.345 746.338M743.376 694.602C753.812 693.995 768.384 707.515 783.043 721.118C798.857 735.791 814.774 750.56 825.713 747.792M825.345 746.338C825.345 746.338 825.344 746.338 825.344 746.338L825.713 747.792M825.345 746.338C838.168 743.08 848.925 734.631 858.052 722.788C867.183 710.938 874.618 695.771 880.798 679.255C891.51 650.628 898.362 618.203 903.808 592.435C904.648 588.457 905.455 584.637 906.238 581.015M825.345 746.338L825.713 747.792M825.713 747.792L906.238 581.015M906.238 581.015C906.238 581.015 906.238 581.016 906.238 581.016L907.704 581.332L906.238 581.015Z" stroke="#FF3A7B" stroke-width="3" stroke-miterlimit="10"/>
<path d="M653.968 246.294L653.97 246.297C664.795 258.691 674.035 272.722 683.174 287.011C684.181 288.584 685.186 290.161 686.192 291.739C694.302 304.46 702.463 317.26 711.662 329.037C722.153 342.757 732.915 352.766 744.481 359.919C770.974 376.47 800.979 377.976 837.222 378.475C874.705 379.071 901.154 396.227 918.547 421.798C935.982 447.432 944.343 481.578 945.381 516.047C946.089 541.957 944.773 567.977 939.521 592.862C938.533 597.439 937.513 602.311 936.445 607.412C930.525 635.674 923.13 670.979 911.628 702.269C904.842 720.73 896.655 737.706 886.558 750.963C876.465 764.215 864.531 773.667 850.253 777.266L850.244 777.268C847.704 777.925 844.776 777.616 841.456 776.42C838.136 775.225 834.522 773.18 830.681 770.502C822.99 765.143 814.622 757.424 806.141 749.468C805.469 748.838 804.797 748.206 804.124 747.574C796.344 740.266 788.52 732.916 781.21 727.328C777.234 724.289 773.361 721.733 769.684 719.978C766.019 718.229 762.444 717.225 759.094 717.421C743.255 718.299 727.909 720.465 712.81 722.596C705.522 723.624 698.293 724.645 691.093 725.509C668.902 728.17 646.811 729.377 623.529 724.95L623.525 724.949C594.247 719.468 565.463 734.8 537.182 751.785C534.077 753.65 530.977 755.535 527.88 757.419C516.791 764.165 505.745 770.884 494.652 776.529C480.473 783.745 466.351 789.133 452.192 790.527C447.937 790.928 443.436 787.942 438.597 782.055C433.828 776.253 429.092 768.079 424.331 759.107C422.345 755.365 420.346 751.466 418.343 747.56C415.589 742.188 412.828 736.804 410.087 731.798C405.343 723.136 400.51 715.322 395.55 710.185C391.397 705.803 386.702 703.02 381.809 704.098C338.769 713.344 300.919 690.978 273.49 657.522C265.006 647.016 256.454 634.013 252.264 614.463L252.234 614.322L252.178 614.19C252.146 614.115 252.115 613.968 252.058 613.551L252.051 613.493C252.012 613.21 251.95 612.752 251.793 612.313C246.608 586.115 250.483 556.492 259.088 530.975C267.725 505.366 281.017 484.208 294.345 474.798C307.743 465.339 321.436 462.703 335.426 460.944C337.486 460.685 339.556 460.445 341.634 460.204C353.604 458.816 365.838 457.397 377.913 452.138L377.93 452.13L377.946 452.123C385.142 448.778 392.094 444.83 398.815 439.988L398.821 439.984C416.359 427.22 431.304 409.607 444.661 390.954C453.586 378.49 461.853 365.485 469.712 353.121C473.6 347.005 477.388 341.046 481.107 335.387L481.107 335.385C485.099 329.3 489.385 322.297 493.979 314.791C504.141 298.185 515.812 279.116 529.139 262.06C548.503 237.277 570.948 217.33 596.597 215.538L596.605 215.537C619.021 213.846 638.959 229.015 653.968 246.294Z" stroke="#FF3A7B" stroke-width="3" stroke-miterlimit="10"/>
<path d="M661.071 224.232L661.078 224.24C672.831 237.988 682.777 253.431 692.66 269.138C693.503 270.478 694.346 271.819 695.189 273.162C704.213 287.532 713.307 302.015 723.747 315.373C735.314 330.309 747.166 341.243 759.548 349.019C788.239 367.445 820.839 369.108 860.548 369.531L860.549 369.531C901.785 369.929 930.861 388.827 949.967 417.024C969.116 445.286 978.271 482.941 979.392 520.731L979.392 520.732C980.246 548.965 979.057 577.581 973.057 605.294L973.057 605.295C971.919 610.573 970.742 616.217 969.507 622.142C963.071 653.019 955.042 691.533 942.574 725.755C935.147 746.141 926.173 764.915 915.083 779.593C903.998 794.264 890.865 804.757 875.122 808.77C872.295 809.481 869.044 809.107 865.373 807.75C861.702 806.393 857.714 804.092 853.482 801.096C845.009 795.099 835.794 786.49 826.468 777.636C825.751 776.955 825.034 776.274 824.317 775.592C815.737 767.435 807.115 759.24 799.067 753.015C794.703 749.639 790.458 746.804 786.433 744.858C782.421 742.919 778.521 741.811 774.878 742.025C757.259 742.916 740.171 745.331 723.332 747.71C715.517 748.815 707.756 749.911 700.02 750.845C675.541 753.798 651.139 755.151 625.447 750.145C593.461 743.913 562.039 760.974 531.117 779.955C527.673 782.069 524.234 784.208 520.799 786.344C508.724 793.855 496.688 801.341 484.595 807.642C469.074 815.73 453.597 821.787 438.06 823.383L438.052 823.384C433.383 823.89 428.464 820.568 423.197 814.019C418.007 807.567 412.859 798.459 407.692 788.471C405.526 784.285 403.349 779.927 401.168 775.563C398.189 769.601 395.206 763.629 392.241 758.075C387.097 748.437 381.866 739.764 376.505 734.096C371.825 729.118 366.881 726.031 361.424 727.045L361.404 727.049L361.384 727.053C313.966 737.187 272.519 712.297 242.676 675.803C233.389 664.387 224.045 650.182 219.403 628.585L219.396 628.549L219.386 628.514C219.296 628.174 219.256 627.894 219.207 627.53C219.158 627.179 219.101 626.749 218.967 626.232C213.341 597.393 217.616 564.731 227.073 536.61C236.554 508.42 251.131 485.11 265.81 474.776C280.563 464.39 295.644 461.48 311.017 459.517C313.248 459.232 315.489 458.967 317.737 458.701C330.91 457.144 344.341 455.556 357.582 449.743C365.694 446.432 373.272 441.928 380.583 436.559C399.927 422.607 416.351 403.209 430.978 382.652C440.819 368.821 449.898 354.387 458.506 340.702C462.676 334.071 466.736 327.617 470.718 321.491C475.211 314.682 480.049 306.791 485.245 298.314C496.344 280.207 509.081 259.429 523.598 240.823C544.923 213.49 569.654 191.459 597.887 189.678C622.896 188.135 644.764 204.874 661.071 224.232Z" stroke="#FF3A7B" stroke-width="3" stroke-miterlimit="10"/>
<path d="M668.184 202.181L668.188 202.186C680.868 217.288 691.595 234.151 702.216 251.305C703.302 253.06 704.387 254.818 705.473 256.577C714.989 271.99 724.573 287.513 735.508 301.955L735.513 301.961C747.872 318.102 760.538 329.959 774.044 338.385C805.53 358.127 840.415 359.934 883.574 360.569L883.579 360.569C928.845 361.07 960.62 381.791 981.437 412.614C1002.3 443.502 1012.18 484.589 1013.39 525.701L1013.39 525.704C1014.37 556.524 1012.74 587.713 1006.29 618.004C1005.01 623.969 1003.68 630.368 1002.29 637.098C995.322 670.729 986.648 712.615 973.193 749.869C965.123 772.215 955.362 792.805 943.28 808.894C931.202 824.977 916.874 836.473 899.674 840.828C896.557 841.595 892.983 841.157 888.963 839.646C884.942 838.135 880.579 835.588 875.954 832.284C866.699 825.672 856.635 816.2 846.463 806.465C845.648 805.685 844.832 804.903 844.015 804.12C834.688 795.182 825.328 786.213 816.596 779.379C811.843 775.659 807.228 772.534 802.858 770.378C798.5 768.229 794.279 766.99 790.346 767.185L790.335 767.185C771.504 768.253 753.235 770.888 735.225 773.484C726.348 774.764 717.533 776.035 708.746 777.105C682.054 780.355 655.415 781.786 627.311 776.2L627.31 776.2C592.756 769.376 558.707 788.087 525.146 808.993C521.316 811.38 517.491 813.795 513.669 816.209C500.659 824.426 487.684 832.621 474.654 839.545C457.809 848.497 441.009 855.246 424.159 857.118C419.073 857.667 413.749 853.964 408.086 846.742C402.503 839.622 396.978 829.581 391.44 818.58C389.107 813.944 386.762 809.118 384.415 804.288C381.235 797.743 378.051 791.189 374.883 785.086C369.371 774.463 363.768 764.908 358.019 758.639C353.092 753.07 347.563 749.603 341.75 750.926C289.961 761.938 244.911 734.812 212.684 695.012C202.624 682.421 192.514 667.059 187.409 643.518C187.429 642.489 187.164 641.496 186.96 640.733L186.949 640.692C180.766 609.226 185.441 573.564 195.741 542.863C206.065 512.094 221.929 486.628 237.82 475.36L237.822 475.359C253.936 463.907 270.33 460.717 287.043 458.585C289.505 458.271 291.976 457.98 294.457 457.688C308.755 456.004 323.339 454.287 337.812 447.949C346.822 444.114 355.006 439.071 362.891 433.464L362.901 433.458L362.91 433.451C383.927 418.017 401.761 396.762 417.658 374.301C428.142 359.488 437.835 344.071 447.043 329.425C451.779 321.892 456.387 314.563 460.908 307.626C465.608 300.43 470.673 292.121 476.113 283.197C488.282 263.235 502.33 240.189 518.38 219.605C541.622 189.797 568.638 165.745 599.472 163.835L599.474 163.835C626.495 162.129 650.534 180.997 668.184 202.181ZM669.337 201.221C651.62 179.957 627.157 160.585 599.379 162.338L669.337 201.221Z" stroke="#FF3A7B" stroke-width="3" stroke-miterlimit="10"/>
<path d="M675.298 180.131L675.299 180.132C688.909 196.592 700.419 214.803 711.862 233.271C712.731 234.673 713.599 236.077 714.468 237.482C725.027 254.55 735.661 271.74 747.916 287.736L747.921 287.742C761.361 305.104 774.848 317.579 789.434 326.929L789.442 326.934C823.135 348.255 860.584 350.509 907.22 351.068L907.228 351.068C956.392 351.379 990.794 373.845 1013.29 407.29C1035.82 440.802 1046.43 485.393 1047.72 529.827L1047.72 529.832C1048.81 563.55 1047.31 597.334 1040.13 630.162L1040.13 630.162C1038.56 637.363 1036.93 645.159 1035.21 653.392C1027.72 689.316 1018.49 733.568 1004.34 773.078C995.643 797.35 985.122 819.74 972.069 837.251C959.02 854.757 943.51 867.296 924.843 872.063C921.474 872.919 917.605 872.447 913.252 870.802C908.901 869.158 904.175 866.38 899.166 862.778C889.141 855.569 878.22 845.234 867.183 834.617C866.312 833.779 865.44 832.939 864.567 832.099C854.43 822.336 844.259 812.539 834.778 805.078C829.625 801.024 824.627 797.619 819.903 795.274C815.19 792.935 810.64 791.593 806.414 791.806L806.411 791.807C785.803 792.889 765.794 795.771 746.044 798.617C736.636 799.972 727.287 801.319 717.96 802.459C688.981 806 660.03 807.577 629.515 801.412C610.856 797.62 592.366 800.853 574.048 807.868C555.745 814.876 537.52 825.698 519.371 837.179C515.208 839.814 511.049 842.482 506.894 845.148C492.892 854.131 478.923 863.093 464.889 870.674C446.702 880.497 428.55 887.916 410.322 889.992C407.618 890.288 404.852 889.443 401.966 887.499C399.066 885.546 396.125 882.532 393.143 878.653C387.178 870.892 381.265 859.953 375.337 847.972C372.834 842.913 370.319 837.65 367.802 832.381C364.4 825.259 360.992 818.126 357.6 811.474C351.69 799.879 345.689 789.451 339.546 782.583L339.536 782.572L339.526 782.561C334.077 776.709 328.574 772.948 322.192 774.215L322.183 774.217L322.173 774.219C266.007 786.121 217.646 756.493 182.715 713.633C171.585 699.832 160.696 682.981 155.122 657.673C155.142 656.645 154.877 655.653 154.674 654.89L154.663 654.852C148.072 620.62 153.144 582.027 164.282 548.822C175.444 515.547 192.589 487.995 209.848 475.656C227.172 463.272 244.948 459.807 263.082 457.473C265.728 457.133 268.385 456.817 271.05 456.499C286.589 454.649 302.424 452.763 318.064 445.866L318.072 445.862L318.08 445.858C327.673 441.494 336.439 436.209 344.952 430.049L344.956 430.046C367.779 413.425 387.094 390.383 404.261 366.018C415.665 349.831 426.174 332.98 436.134 317.008C441.151 308.964 446.029 301.142 450.812 293.741C455.854 285.992 461.294 277.026 467.145 267.383C480.246 245.792 495.405 220.809 512.759 198.507C537.882 166.221 567.181 140.152 600.746 138.262L600.754 138.261C630.373 136.427 656.316 157.135 675.298 180.131Z" stroke="#FF3A7B" stroke-width="3" stroke-miterlimit="10"/>
<path d="M682.407 158.075L682.411 158.08C696.95 175.896 709.238 195.524 721.535 215.382C722.039 216.196 722.542 217.009 723.046 217.823C734.825 236.854 746.697 256.034 760.59 273.816C774.814 292.682 789.686 306.101 805.083 316.069L805.092 316.075C840.998 338.977 881.034 341.388 931.134 341.872L931.138 341.872C984.041 342.267 1021.07 366.55 1045.28 402.624C1069.53 438.763 1080.93 486.788 1082.31 534.541C1083.24 570.848 1081.58 607.221 1073.95 642.62L1073.95 642.622C1072.34 650.142 1070.67 658.27 1068.92 666.851C1060.95 705.753 1051.07 753.954 1035.8 796.955C1026.48 823.189 1015.18 847.395 1001.14 866.317C987.104 885.233 970.399 898.777 950.275 903.887C946.617 904.798 942.424 904.259 937.722 902.452C933.021 900.646 927.92 897.613 922.52 893.691C911.714 885.844 899.946 874.62 888.064 863.104C887.148 862.217 886.231 861.327 885.314 860.437C874.376 849.825 863.409 839.183 853.19 831.085C847.648 826.693 842.278 823.01 837.205 820.474C832.145 817.945 827.27 816.501 822.752 816.732L822.749 816.733C800.573 817.914 779.083 821.066 757.864 824.179C747.756 825.662 737.709 827.136 727.678 828.384C696.518 832.259 665.326 833.986 632.256 827.233C612.243 823.141 592.402 826.634 572.737 834.224C553.086 841.809 533.519 853.521 514.032 865.966C509.447 868.894 504.868 871.861 500.292 874.827C485.375 884.494 470.492 894.139 455.547 902.323C436.032 913.011 416.557 921.122 397.015 923.475C394.059 923.825 391.053 922.915 387.936 920.814C384.806 918.702 381.641 915.435 378.443 911.231C372.045 902.819 365.73 890.947 359.414 877.952C356.724 872.416 354.024 866.657 351.323 860.894C347.725 853.218 344.124 845.537 340.539 838.371C334.252 825.804 327.871 814.522 321.328 807.123C315.573 800.615 309.512 796.867 302.873 798.1L302.853 798.104L302.834 798.108C242.864 810.928 190.607 779.042 153.286 732.865L153.284 732.862C141.052 717.81 129.351 699.715 123.625 672.286L123.616 672.246L123.606 672.206C123.499 671.805 123.393 671.327 123.279 670.808L123.273 670.783C123.168 670.305 123.054 669.79 122.934 669.333C115.783 632.473 121.256 590.878 133.238 555.093C145.243 519.239 163.674 489.531 182.145 476.258L182.146 476.258C200.83 462.806 219.991 459.067 239.503 456.566C242.363 456.199 245.234 455.859 248.114 455.518C264.816 453.541 281.807 451.529 298.577 444.091L298.588 444.086C308.774 439.469 318.44 433.661 327.569 426.957L327.576 426.951C351.927 408.839 372.578 383.937 390.977 357.668C402.956 340.566 414.033 322.802 424.555 305.928C430.177 296.913 435.64 288.152 440.998 279.881L440.999 279.879C446.25 271.745 451.918 262.364 458.013 252.277C472.179 228.833 488.649 201.576 507.541 177.289C534.581 142.528 566.166 114.438 602.332 112.419C633.966 110.703 662.122 132.994 682.407 158.075Z" stroke="#FF3A7B" stroke-width="3" stroke-miterlimit="10"/>
<path d="M689.523 136.027L689.524 136.029C704.988 155.198 717.983 176.238 730.91 197.537C731.762 198.941 732.614 200.346 733.466 201.752C745.527 221.647 757.666 241.671 771.783 260.371L771.787 260.376C787.085 280.457 802.767 294.795 819.288 305.415L819.293 305.418C857.692 329.913 900.576 332.789 953.865 333.18L953.867 333.18C1010.81 333.536 1050.55 359.5 1076.47 398.126C1102.43 436.82 1114.56 488.277 1116.01 539.495C1117.09 578.113 1115.25 617.359 1107.18 655.328C1105.42 663.547 1103.6 672.457 1101.68 681.876C1093.19 723.412 1082.68 774.866 1066.43 820.816C1056.47 848.992 1044.39 875.005 1029.36 895.334C1014.33 915.659 996.424 930.208 974.839 935.66L974.838 935.661C970.889 936.66 966.372 936.08 961.32 934.13C956.269 932.181 950.795 928.906 945.004 924.672C933.417 916.202 920.804 904.08 908.077 891.647C907.072 890.666 906.067 889.683 905.062 888.7C893.369 877.263 881.653 865.803 870.739 857.08C864.808 852.34 859.066 848.368 853.647 845.634C848.24 842.908 843.04 841.356 838.229 841.606L838.226 841.606C814.626 842.879 791.725 846.231 769.097 849.544C758.115 851.152 747.198 852.75 736.297 854.097C702.852 858.228 669.35 860.029 633.866 852.696L633.865 852.696C612.57 848.308 591.449 852.067 570.5 860.237C549.566 868.401 528.709 881.008 507.919 894.418C503.007 897.587 498.099 900.799 493.194 904.01C477.297 914.416 461.425 924.806 445.48 933.639C424.628 945.19 403.795 953.991 382.868 956.618C379.741 956.989 376.557 956.004 373.255 953.735C369.937 951.456 366.582 947.934 363.193 943.409C356.414 934.356 349.711 921.585 343.005 907.611C340.146 901.653 337.277 895.457 334.406 889.257C330.585 881.003 326.76 872.741 322.95 865.026C316.267 851.494 309.492 839.343 302.557 831.345L302.553 831.339L302.548 831.334C296.571 824.575 289.941 820.133 282.935 821.675C218.589 835.377 162.726 801.251 123.018 751.763L123.01 751.753C109.975 735.793 97.4846 716.501 91.3063 687.034C91.1939 686.43 91.0771 685.901 90.9658 685.397C90.8527 684.884 90.7451 684.395 90.6421 683.84L90.6403 683.831C83.0582 644.336 88.8599 599.711 101.619 561.326C114.396 522.888 134.041 491.025 153.861 476.829L153.862 476.828C173.9 462.451 194.442 458.507 215.336 455.839C218.255 455.466 221.184 455.118 224.121 454.769C242.142 452.628 260.455 450.453 278.522 442.278L278.535 442.272C289.602 437.14 299.859 431.083 309.609 423.831C335.771 404.389 357.901 377.704 377.569 349.566C390.539 331.01 402.49 311.741 413.821 293.472C419.654 284.067 425.323 274.927 430.882 266.286L430.884 266.284C436.415 257.655 442.387 247.712 448.809 237.019C463.961 211.79 481.619 182.387 501.918 156.226C530.841 118.952 564.709 88.8438 603.608 86.8455L603.612 86.8454C637.844 84.9999 667.906 109.133 689.523 136.027ZM447.464 236.343C441.057 247.009 435.111 256.911 429.621 265.474L772.98 259.467C758.911 240.831 746.809 220.869 734.74 200.96C720.973 178.25 707.248 155.61 690.692 135.087C669.002 108.103 638.522 83.4612 603.531 85.3475C536.069 88.8132 484.207 175.164 447.464 236.343Z" stroke="#FF3A7B" stroke-width="3" stroke-miterlimit="10"/>
<path d="M421.086 252.139L421.089 252.134C426.893 243.063 433.166 232.611 439.916 221.365C456.074 194.443 474.965 162.967 496.702 134.974C527.54 95.2583 563.694 63.1291 605.195 61.0024C641.438 59.2784 673.422 84.9699 696.638 113.978C713.03 134.503 726.803 156.961 740.555 179.54L741.606 181.265C754.99 203.244 768.418 225.295 784.228 245.579C800.313 266.856 816.803 282.11 834.443 293.378L834.446 293.38C875.069 319.161 920.514 322.485 977.275 322.8C1038.1 323.251 1080.46 351.033 1108.06 392.283C1135.7 433.601 1148.56 488.49 1150.09 543.029L1150.09 543.031C1151.3 584.249 1149.3 626.077 1140.5 666.592L1140.5 666.593C1138.46 675.992 1136.36 686.239 1134.13 697.099C1125.11 741.062 1114.02 795.055 1097.04 843.379C1086.46 873.499 1073.61 901.32 1057.61 923.076C1041.61 944.827 1022.52 960.42 999.472 966.285L999.466 966.287C995.263 967.374 990.456 966.76 985.081 964.678C979.709 962.596 973.883 959.09 967.721 954.559C955.391 945.494 941.957 932.511 928.401 919.199C927.346 918.163 926.291 917.126 925.236 916.088C912.764 903.825 900.265 891.536 888.624 882.184C882.307 877.11 876.193 872.86 870.426 869.937C864.672 867.021 859.148 865.367 854.046 865.636L854.043 865.636C828.873 867.007 804.458 870.628 780.326 874.206C768.631 875.941 757.002 877.665 745.386 879.119C709.725 883.582 673.983 885.533 636.087 877.621C613.442 872.86 590.987 876.863 568.712 885.619C546.453 894.369 524.277 907.906 502.165 922.315C496.923 925.731 491.685 929.195 486.45 932.658C469.559 943.831 452.688 954.99 435.736 964.479C413.54 976.903 391.351 986.376 369.043 989.205L369.042 989.205C365.699 989.632 362.312 988.59 358.812 986.173C355.296 983.745 351.752 979.983 348.177 975.145C341.025 965.467 333.973 951.793 326.912 936.823C323.949 930.539 320.976 924.01 317.999 917.471C313.924 908.52 309.841 899.552 305.762 891.171C298.698 876.659 291.514 863.624 284.117 855.019C277.857 847.322 270.961 842.909 263.411 844.391L263.399 844.393L263.388 844.396C194.666 858.984 135.495 822.355 93.0853 769.81C79.251 752.64 65.9668 732.14 59.3387 700.618L59.3306 700.579L59.3204 700.541C59.1043 699.729 58.8985 698.627 58.6781 697.441L58.677 697.435C50.6784 655.319 56.881 607.691 70.4831 566.727C84.1035 525.709 105.034 491.694 126.206 476.573L126.212 476.568C147.612 461.124 169.467 456.901 191.702 454.063C194.851 453.661 198.012 453.287 201.181 452.911C220.323 450.645 239.783 448.34 259.078 439.646C270.746 434.538 281.619 427.934 291.967 420.152C319.788 399.513 343.325 371.041 364.261 341.001C377.837 321.521 390.374 301.298 402.276 282.098C408.71 271.72 414.959 261.64 421.086 252.139Z" stroke="#FF3A7B" stroke-width="3" stroke-miterlimit="10"/>
<path d="M1184.09 548.003L1185.59 547.957L1184.09 548.003C1185.43 591.819 1183.25 636.521 1173.98 679.892C1171.78 690.025 1169.51 701.11 1167.1 712.878C1157.57 759.362 1145.86 816.509 1127.94 867.724C1116.71 899.804 1103.07 929.46 1086.08 952.645C1069.08 975.826 1048.8 992.441 1024.29 998.649L1024.29 998.65C1019.83 999.794 1014.73 999.115 1009.02 996.872C1003.32 994.629 997.132 990.868 990.586 986.019C977.487 976.315 963.197 962.442 948.778 948.23C947.714 947.181 946.65 946.131 945.585 945.081C932.258 931.931 918.898 918.749 906.464 908.731C899.747 903.319 893.251 898.789 887.129 895.676C881.021 892.57 875.168 890.814 869.775 891.101L869.772 891.101C843.176 892.564 817.349 896.384 791.806 900.163C779.24 902.022 766.742 903.871 754.256 905.424C716.309 910.143 678.256 912.169 637.947 903.676C613.949 898.615 590.142 902.896 566.519 912.251C542.912 921.599 519.392 936.053 495.941 951.443C490.347 955.114 484.758 958.838 479.171 962.56C461.294 974.469 443.441 986.363 425.511 996.482C401.988 1009.76 378.48 1019.89 354.865 1022.92L354.863 1022.92C350.546 1023.48 346.145 1021.7 341.57 1017.77C336.993 1013.84 332.409 1007.89 327.808 1000.51C318.697 985.894 309.747 966.035 300.753 946.079L300.488 945.491C291.434 925.403 282.332 905.263 273.046 890.653C268.405 883.351 263.654 877.324 258.759 873.368C253.85 869.401 248.632 867.394 243.181 868.517L243.177 868.517C170.38 883.724 107.597 844.853 62.7984 788.993L62.794 788.987C48.1581 770.911 34.0969 748.923 27.0171 715.349L27.0166 715.347C17.4725 670.411 23.7544 619.123 38.2059 574.898C52.6753 530.62 75.2232 493.75 97.9111 477.426C120.666 461.054 143.909 456.557 167.526 453.515C170.847 453.087 174.178 452.688 177.518 452.288C197.869 449.852 218.533 447.378 239 438.122C278.469 420.34 310.49 387.471 338.099 350.606C357.58 324.596 374.945 296.477 391.189 270.175C397.953 259.222 404.522 248.584 410.969 238.545L410.971 238.542C417.105 228.939 423.745 217.852 430.898 205.91C448.023 177.317 468.087 143.817 491.18 114.025C523.941 71.7604 562.383 37.543 606.472 35.4292C645.316 33.5741 679.206 61.1094 703.755 91.9325L703.755 91.933C721.081 113.667 735.637 137.47 750.129 161.461C750.791 162.556 751.452 163.652 752.114 164.748C765.929 187.631 779.799 210.606 796.019 231.888L796.019 231.889C824.323 268.992 853.727 289.425 886.976 300.596C920.162 311.746 957.082 313.634 1000.31 313.838C1065.03 314.24 1110.01 343.839 1139.32 387.752C1168.68 431.735 1182.33 490.132 1184.09 548.003Z" stroke="#FF3A7B" stroke-width="3" stroke-miterlimit="10"/>
</svg>
