<svg width="101" height="101" viewBox="0 0 101 101" fill="none" xmlns="http://www.w3.org/2000/svg">
<path d="M87.2249 21.4519H71.3769V14.6069C71.3769 13.7779 70.7049 13.1069 69.8769 13.1069C69.0489 13.1069 68.3769 13.7779 68.3769 14.6069V21.4519H29.9119V14.6069C29.9119 13.7779 29.2409 13.1069 28.4119 13.1069C27.5829 13.1069 26.9119 13.7779 26.9119 14.6069V21.4519H12.7759C11.9469 21.4519 11.2759 22.1229 11.2759 22.9519V85.3919C11.2759 86.2199 11.9469 86.8919 12.7759 86.8919H87.2249C88.0529 86.8919 88.7249 86.2199 88.7249 85.3919V22.9519C88.7249 22.1229 88.0529 21.4519 87.2249 21.4519ZM85.7249 83.8919H14.2759V24.4519H26.9119V28.9929C26.9119 29.8219 27.5829 30.4929 28.4119 30.4929C29.2409 30.4929 29.9119 29.8219 29.9119 28.9929V24.4519H68.3769V28.9929C68.3769 29.8219 69.0489 30.4929 69.8769 30.4929C70.7049 30.4929 71.3769 29.8219 71.3769 28.9929V24.4519H85.7249V83.8919Z" fill="black"/>
<path d="M70.8979 64.3419L65.8369 59.2789C65.2509 58.6929 64.3019 58.6929 63.7159 59.2789C63.1299 59.8639 63.1299 60.8139 63.7159 61.3999L68.7769 66.4629L63.7159 71.5259C63.1299 72.1119 63.1299 73.0619 63.7159 73.6469C64.0089 73.9399 64.3929 74.0859 64.7769 74.0859C65.1609 74.0859 65.5449 73.9399 65.8379 73.6469L70.8989 68.5839L75.9599 73.6469C76.2529 73.9399 76.6369 74.0859 77.0209 74.0859C77.4049 74.0859 77.7889 73.9399 78.0819 73.6469C78.6679 73.0619 78.6679 72.1119 78.0819 71.5259L73.0209 66.4629L78.0819 61.3999C78.6679 60.8139 78.6679 59.8639 78.0819 59.2789C77.4959 58.6929 76.5469 58.6929 75.9609 59.2789L70.8979 64.3419Z" fill="black"/>
<path d="M33.9477 38.5781H24.6987C23.8697 38.5781 23.1987 39.2491 23.1987 40.0781V49.3251C23.1987 50.1541 23.8697 50.8251 24.6987 50.8251H33.9477C34.7767 50.8251 35.4477 50.1531 35.4477 49.3251V40.0781C35.4477 39.2491 34.7767 38.5781 33.9477 38.5781ZM32.4477 47.8251H26.1987V41.5781H32.4477V47.8251Z" fill="black"/>
<path d="M55.0209 38.5781H45.7749C44.9459 38.5781 44.2749 39.2491 44.2749 40.0781V49.3251C44.2749 50.1541 44.9459 50.8251 45.7749 50.8251H55.0209C55.8489 50.8251 56.5209 50.1531 56.5209 49.3251V40.0781C56.5209 39.2491 55.8499 38.5781 55.0209 38.5781ZM53.5209 47.8251H47.2749V41.5781H53.5209V47.8251Z" fill="black"/>
<path d="M33.9477 59.8481H24.6987C23.8697 59.8481 23.1987 60.5201 23.1987 61.3481V70.5951C23.1987 71.4231 23.8697 72.0951 24.6987 72.0951H33.9477C34.7767 72.0951 35.4477 71.4231 35.4477 70.5951V61.3481C35.4477 60.5201 34.7767 59.8481 33.9477 59.8481ZM32.4477 69.0951H26.1987V62.8481H32.4477V69.0951Z" fill="black"/>
<path d="M55.0209 59.8481H45.7749C44.9459 59.8481 44.2749 60.5201 44.2749 61.3481V70.5951C44.2749 71.4231 44.9459 72.0951 45.7749 72.0951H55.0209C55.8489 72.0951 56.5209 71.4231 56.5209 70.5951V61.3481C56.5209 60.5201 55.8499 59.8481 55.0209 59.8481ZM53.5209 69.0951H47.2749V62.8481H53.5209V69.0951Z" fill="black"/>
<path d="M65.8838 38.5781C65.0558 38.5781 64.3838 39.2491 64.3838 40.0781V49.3251C64.3838 50.1541 65.0558 50.8251 65.8838 50.8251H75.1328C75.9608 50.8251 76.6328 50.1531 76.6328 49.3251V40.0781C76.6328 39.2491 75.9608 38.5781 75.1328 38.5781H65.8838ZM73.6328 47.8251H67.3838V41.5781H73.6328V47.8251Z" fill="black"/>
</svg>
