<svg width="50" height="51" viewBox="0 0 50 51" fill="none" xmlns="http://www.w3.org/2000/svg">
<g clip-path="url(#clip0)">
<path d="M24.9145 0.813965C11.1547 0.813965 0 11.9687 0 25.7285C0 39.4883 11.1547 50.643 24.9145 50.643C38.6743 50.643 49.829 39.4883 49.829 25.7285C49.829 11.9687 38.6743 0.813965 24.9145 0.813965ZM39.8187 15.4059C39.8298 15.4059 39.8394 15.4119 39.8505 15.4124L25.9477 29.3152C25.4844 29.7785 24.6639 29.7795 24.2006 29.3142L10.2923 15.4059H39.8187ZM9.32273 16.336C9.32273 16.3284 9.32677 16.3224 9.32677 16.3153L18.7773 25.7659L9.32273 35.2205V16.336ZM10.2529 36.3108C10.2099 36.3108 10.1731 36.2921 10.1316 36.2865L19.7146 26.7036L23.2629 30.2519C23.7454 30.7344 24.3886 30.9997 25.0742 30.9997C25.7603 30.9997 26.4025 30.7334 26.885 30.2519L30.3186 26.8183L39.8111 36.3108H10.2529ZM40.7488 35.3736L31.2563 25.8811L40.7488 16.3891V35.3736Z" fill="black"/>
</g>
<defs>
<clipPath id="clip0">
<rect width="49.829" height="49.829" fill="white" transform="translate(0 0.813965)"/>
</clipPath>
</defs>
</svg>
