<svg width="100" height="100" viewBox="0 0 100 100" fill="none" xmlns="http://www.w3.org/2000/svg">
<path d="M47.5209 46.5341H38.3889C35.9889 46.5341 34.0359 44.5821 34.0359 42.1831C34.0359 40.2471 35.0969 36.0301 36.0329 32.3091C36.8239 29.1661 37.5709 26.1971 37.8499 24.1131C38.1499 21.8921 37.4549 19.6861 35.8939 17.9011C34.0769 15.8221 31.3259 14.5811 28.5349 14.5811C25.7409 14.5811 22.9869 15.8231 21.1699 17.9031C19.6099 19.6881 18.9179 21.8941 19.2179 24.1121C19.5029 26.2331 20.2979 29.2531 21.1379 32.4501C22.1029 36.1191 23.1969 40.2781 23.1969 42.1831C23.1969 44.5821 21.2439 46.5341 18.8439 46.5341H9.54395C8.71495 46.5341 8.04395 47.2051 8.04395 48.0341V85.8631C8.04395 86.6911 8.71495 87.3631 9.54395 87.3631H47.5199C48.3489 87.3631 49.0199 86.6911 49.0199 85.8631V48.0341C49.0209 47.2061 48.3499 46.5341 47.5209 46.5341ZM18.8449 49.5341C22.8999 49.5341 26.1979 46.2361 26.1979 42.1831C26.1979 39.8901 25.1499 35.9051 24.0399 31.6861C23.2589 28.7181 22.4519 25.6481 22.1909 23.7101C21.9569 21.9811 22.7349 20.6711 23.4289 19.8771C24.6659 18.4611 26.6219 17.5811 28.5339 17.5811C30.4429 17.5811 32.3979 18.4601 33.6349 19.8751C34.3299 20.6701 35.1099 21.9811 34.8759 23.7121C34.6189 25.6291 33.8579 28.6531 33.1229 31.5771C32.0489 35.8451 31.0359 39.8751 31.0359 42.1831C31.0359 46.2361 34.3339 49.5341 38.3889 49.5341H46.0209V57.5451H11.0449V49.5341H18.8449ZM11.0449 84.3631V60.5451H46.0209V84.3631H11.0449Z" fill="black"/>
<path d="M33.2043 23.817C33.2043 21.242 31.1093 19.147 28.5343 19.147C25.9593 19.147 23.8643 21.242 23.8643 23.817C23.8643 26.392 25.9593 28.487 28.5343 28.487C31.1093 28.487 33.2043 26.392 33.2043 23.817ZM26.8643 23.817C26.8643 22.896 27.6133 22.147 28.5343 22.147C29.4553 22.147 30.2043 22.896 30.2043 23.817C30.2043 24.738 29.4553 25.487 28.5343 25.487C27.6133 25.487 26.8643 24.738 26.8643 23.817Z" fill="black"/>
<path d="M91.3574 25.5902L83.2104 19.4512C82.9504 19.2552 82.6344 19.1492 82.3084 19.1492H76.1404V14.1372C76.1404 13.3082 75.4684 12.6372 74.6404 12.6372H63.7144C62.8864 12.6372 62.2144 13.3082 62.2144 14.1372V19.1492H47.8994C47.0704 19.1492 46.3994 19.8202 46.3994 20.6492V32.3422C46.3994 33.1712 47.0704 33.8422 47.8994 33.8422H62.2144V85.8632C62.2144 86.6912 62.8864 87.3632 63.7144 87.3632H74.6404C75.4684 87.3632 76.1404 86.6912 76.1404 85.8632V33.8422H90.4554C91.2834 33.8422 91.9554 33.1712 91.9554 32.3422V26.7882C91.9554 26.3172 91.7344 25.8742 91.3574 25.5902ZM65.2144 15.6372H73.1404V19.1492H65.2144V15.6372ZM73.1404 84.3632H65.2144V33.8422H73.1404V84.3632ZM88.9554 30.8422H49.3994V22.1492H81.8064L88.9554 27.5362V30.8422Z" fill="black"/>
</svg>
