<svg width="101" height="101" viewBox="0 0 101 101" fill="none" xmlns="http://www.w3.org/2000/svg">
<path d="M80.5 11H61V7.5C61 7.10218 60.842 6.72064 60.5607 6.43934C60.2794 6.15804 59.8978 6 59.5 6H41.5C41.1022 6 40.7206 6.15804 40.4393 6.43934C40.158 6.72064 40 7.10218 40 7.5V11H21.5C21.1022 11 20.7206 11.158 20.4393 11.4393C20.158 11.7206 20 12.1022 20 12.5V84.5C20 84.8978 20.158 85.2794 20.4393 85.5607C20.7206 85.842 21.1022 86 21.5 86H80.5C80.8978 86 81.2794 85.842 81.5607 85.5607C81.842 85.2794 82 84.8978 82 84.5V12.5C82 12.1022 81.842 11.7206 81.5607 11.4393C81.2794 11.158 80.8978 11 80.5 11ZM43 9H58V15H43V9ZM79 83H23V14H40V16.5C40 16.8978 40.158 17.2794 40.4393 17.5607C40.7206 17.842 41.1022 18 41.5 18H59.5C59.8978 18 60.2794 17.842 60.5607 17.5607C60.842 17.2794 61 16.8978 61 16.5V14H79V83Z" fill="black"/>
<path d="M33.5 34H28.5C28.1022 34 27.7206 34.158 27.4393 34.4393C27.158 34.7206 27 35.1022 27 35.5C27 35.8978 27.158 36.2794 27.4393 36.5607C27.7206 36.842 28.1022 37 28.5 37H33.5C33.8978 37 34.2794 36.842 34.5607 36.5607C34.842 36.2794 35 35.8978 35 35.5C35 35.1022 34.842 34.7206 34.5607 34.4393C34.2794 34.158 33.8978 34 33.5 34Z" fill="black"/>
<path d="M40.5 34C40.1022 34 39.7206 34.158 39.4393 34.4393C39.158 34.7206 39 35.1022 39 35.5C39 35.8978 39.158 36.2794 39.4393 36.5607C39.7206 36.842 40.1022 37 40.5 37H73.5C73.8978 37 74.2794 36.842 74.5607 36.5607C74.842 36.2794 75 35.8978 75 35.5C75 35.1022 74.842 34.7206 74.5607 34.4393C74.2794 34.158 73.8978 34 73.5 34H40.5Z" fill="black"/>
<path d="M33.5 47H28.5C28.1022 47 27.7206 47.158 27.4393 47.4393C27.158 47.7206 27 48.1022 27 48.5C27 48.8978 27.158 49.2794 27.4393 49.5607C27.7206 49.842 28.1022 50 28.5 50H33.5C33.8978 50 34.2794 49.842 34.5607 49.5607C34.842 49.2794 35 48.8978 35 48.5C35 48.1022 34.842 47.7206 34.5607 47.4393C34.2794 47.158 33.8978 47 33.5 47Z" fill="black"/>
<path d="M73.5 47H40.5C40.1022 47 39.7206 47.158 39.4393 47.4393C39.158 47.7206 39 48.1022 39 48.5C39 48.8978 39.158 49.2794 39.4393 49.5607C39.7206 49.842 40.1022 50 40.5 50H73.5C73.8978 50 74.2794 49.842 74.5607 49.5607C74.842 49.2794 75 48.8978 75 48.5C75 48.1022 74.842 47.7206 74.5607 47.4393C74.2794 47.158 73.8978 47 73.5 47Z" fill="black"/>
<path d="M33.5 60H28.5C28.1022 60 27.7206 60.158 27.4393 60.4393C27.158 60.7206 27 61.1022 27 61.5C27 61.8978 27.158 62.2794 27.4393 62.5607C27.7206 62.842 28.1022 63 28.5 63H33.5C33.8978 63 34.2794 62.842 34.5607 62.5607C34.842 62.2794 35 61.8978 35 61.5C35 61.1022 34.842 60.7206 34.5607 60.4393C34.2794 60.158 33.8978 60 33.5 60Z" fill="black"/>
<path d="M73.5 60H40.5C40.1022 60 39.7206 60.158 39.4393 60.4393C39.158 60.7206 39 61.1022 39 61.5C39 61.8978 39.158 62.2794 39.4393 62.5607C39.7206 62.842 40.1022 63 40.5 63H73.5C73.8978 63 74.2794 62.842 74.5607 62.5607C74.842 62.2794 75 61.8978 75 61.5C75 61.1022 74.842 60.7206 74.5607 60.4393C74.2794 60.158 73.8978 60 73.5 60Z" fill="black"/>
</svg>
