<svg width="101" height="101" viewBox="0 0 101 101" fill="none" xmlns="http://www.w3.org/2000/svg">
<path d="M93.4862 22.0692L77.9312 6.51421C77.3452 5.92821 76.3962 5.92821 75.8102 6.51421L48.1352 34.1882L31.4282 17.7502C31.4152 17.7372 31.3982 17.7282 31.3842 17.7162C31.3292 17.6662 31.2702 17.6212 31.2072 17.5792C31.1772 17.5592 31.1492 17.5372 31.1182 17.5192C31.0442 17.4772 30.9652 17.4442 30.8832 17.4142C30.8622 17.4072 30.8442 17.3942 30.8232 17.3872L8.19521 10.3172C7.66521 10.1522 7.08221 10.2942 6.68721 10.6882C6.29221 11.0832 6.14921 11.6642 6.31621 12.1962L13.3872 34.8232C13.4302 34.9602 13.4962 35.0862 13.5752 35.2042C13.6002 35.2422 13.6302 35.2732 13.6582 35.3082C13.6952 35.3542 13.7252 35.4042 13.7672 35.4452L30.4572 51.8662L6.51421 75.8102C5.92821 76.3962 5.92821 77.3452 6.51421 77.9312L22.0702 93.4882C22.3512 93.7692 22.7332 93.9272 23.1312 93.9272C23.5292 93.9272 23.9102 93.7692 24.1922 93.4882L48.3822 69.2982L67.9542 88.3192C68.2042 88.5602 68.5182 88.6772 68.8392 88.7122C71.1092 90.8172 74.0372 91.9822 77.1512 91.9822C80.4232 91.9822 83.5002 90.7082 85.8132 88.3942C90.5262 83.6812 90.5792 76.0562 85.9902 71.2662C85.9172 71.0172 85.7872 70.7872 85.5972 70.6042L65.9682 51.7112L93.4872 24.1912C94.0722 23.6042 94.0722 22.6552 93.4862 22.0692ZM28.5212 19.8122L27.4002 23.6222L22.1742 25.1592C21.6852 25.3032 21.3022 25.6852 21.1582 26.1752L19.6222 31.4002L15.8112 32.5212L10.0342 14.0352L28.5212 19.8122ZM23.1302 90.3062L9.69521 76.8702L15.3472 71.2182L22.0642 77.9352C22.3572 78.2282 22.7412 78.3742 23.1252 78.3742C23.5092 78.3742 23.8932 78.2282 24.1862 77.9352C24.7722 77.3492 24.7722 76.4002 24.1862 75.8142L17.4692 69.0972L22.9732 63.5932L29.6902 70.3102C29.9832 70.6032 30.3672 70.7492 30.7512 70.7492C31.1352 70.7492 31.5192 70.6032 31.8122 70.3102C32.3982 69.7242 32.3982 68.7752 31.8122 68.1892L25.0952 61.4722L32.6042 53.9632L46.2312 67.2072L23.1302 90.3062ZM83.6892 86.2722C80.3322 89.6272 75.0212 89.8562 71.3932 86.9672L84.3852 73.9752C87.2742 77.6042 87.0452 82.9172 83.6892 86.2722ZM68.9832 85.1362L33.5412 50.6912L17.6892 35.0952L21.2542 34.0472C21.7432 33.9032 22.1262 33.5212 22.2702 33.0312L23.8072 27.8062L29.0332 26.2692C29.5222 26.1252 29.9052 25.7432 30.0492 25.2532L31.1112 21.6442L62.7572 52.7802L82.4162 71.7042L68.9832 85.1362ZM63.8172 49.6192L50.2732 36.2922L57.9722 28.5932L64.6892 35.3102C64.9822 35.6032 65.3662 35.7492 65.7502 35.7492C66.1342 35.7492 66.5182 35.6032 66.8112 35.3102C67.3972 34.7252 67.3972 33.7742 66.8112 33.1892L60.0942 26.4722L66.3482 20.2182L73.0652 26.9352C73.3582 27.2282 73.7422 27.3742 74.1262 27.3742C74.5102 27.3742 74.8942 27.2282 75.1872 26.9352C75.7732 26.3502 75.7732 25.3992 75.1872 24.8142L68.4702 18.0972L76.8722 9.69521L90.3052 23.1302L63.8172 49.6192Z" fill="black"/>
</svg>
