<svg width="50" height="51" viewBox="0 0 50 51" fill="none" xmlns="http://www.w3.org/2000/svg">
<g clip-path="url(#clip0)">
<path d="M25.0285 0.833008C11.2688 0.833008 0.114014 11.9878 0.114014 25.7475C0.114014 39.5073 11.2688 50.662 25.0285 50.662C38.7883 50.662 49.943 39.5073 49.943 25.7475C49.943 11.9878 38.7883 0.833008 25.0285 0.833008ZM24.1858 13.8152C24.3697 13.8117 24.5622 13.84 24.7274 13.8395C24.7946 13.839 24.8567 13.8339 24.9108 13.8203C30.8605 14.0365 36.0524 19.4451 35.9443 25.3949C35.9443 25.9355 36.1605 26.801 35.2951 26.801C34.4296 26.801 34.6458 25.9355 34.6458 25.2867C34.5513 24.5026 34.4225 23.7705 34.2583 23.0884C34.0941 22.4064 33.8935 21.7738 33.6555 21.1882C33.2978 20.3096 32.8552 19.5366 32.3192 18.8601C30.712 16.83 28.2707 15.6664 24.8022 15.1187C24.2616 15.0106 23.5042 15.1187 23.5042 14.4695C23.5042 13.9077 23.8281 13.8147 24.1858 13.8152ZM32.3742 25.6111C31.4006 25.7192 31.6169 24.8537 31.5088 24.3131C30.8595 20.5269 29.5616 19.1208 25.6677 18.2553C25.1265 18.1472 24.2616 18.2553 24.3697 17.3898C24.4778 16.5243 25.3433 16.8492 25.8839 16.9573C29.7783 17.3898 32.9154 20.635 32.9154 24.3131C32.8067 24.7456 33.1316 25.503 32.3742 25.6111ZM29.9946 23.6639C29.9946 24.0964 29.9946 24.6375 29.3453 24.7456C28.9128 24.7456 28.6961 24.4213 28.588 23.9883C28.4798 22.3659 27.6144 21.5005 25.992 21.2837C25.5595 21.1756 25.0184 21.0675 25.2347 20.4182C25.3428 19.9857 25.7753 19.9857 26.2083 19.9857C28.0473 19.8781 29.9946 21.8253 29.9946 23.6639ZM36.0519 35.5634C35.4027 37.4025 33.1311 39.241 31.1839 39.241C30.9677 39.1329 30.4265 39.1329 29.8859 38.9167C21.4484 35.239 15.1743 29.2893 11.7129 20.6355C10.523 17.8228 11.821 15.335 14.7418 14.3614C15.2824 14.1451 15.8235 14.1451 16.3641 14.3614C17.6621 14.7939 20.7991 19.2294 20.9073 20.5274C21.0154 21.6091 20.258 22.1497 19.6093 22.5827C18.3113 23.4482 18.3113 24.638 18.8519 25.8279C20.1499 28.6405 22.3134 30.4791 25.0179 31.7776C25.9915 32.2101 26.9651 32.2101 27.6139 31.1284C28.8037 29.2893 30.3179 29.2893 31.9407 30.4791C32.6981 31.0197 33.5631 31.5608 34.3204 32.2101C35.4032 33.0751 36.7011 33.8324 36.0519 35.5634Z" fill="black"/>
</g>
<defs>
<clipPath id="clip0">
<rect width="49.829" height="49.829" fill="white" transform="translate(0.114014 0.833008)"/>
</clipPath>
</defs>
</svg>
